<svg xmlns="http://www.w3.org/2000/svg" width="110" height="72" viewBox="0 0 110 72">
  <title>
    logo-color-att
  </title>
  <g fill="none" fill-rule="evenodd">
    <g transform="translate(0 16)">
      <path fill="#0A0B09" d="M73.246 31.516a.472.472 0 0 1-.495-.496V16.51h-4.927a.472.472 0 0 1-.495-.496v-2.001c0-.293.202-.495.495-.495h13.117c.292 0 .495.202.495.495v2.001a.473.473 0 0 1-.495.496h-4.927V31.02a.473.473 0 0 1-.496.496h-2.272zm13.746-2.43c-1.486 0-2.745-1.102-2.745-2.655 0-1.575.9-2.363 2.295-3.15l3.645 3.915c-.788 1.192-1.756 1.89-3.195 1.89zM88.004 15.9c1.17 0 1.755.765 1.755 1.688 0 .99-.675 1.552-2.272 2.474-.923-.99-1.327-1.664-1.327-2.43 0-.99.674-1.732 1.844-1.732zm9.967 14.985l-3.802-4.118 2.52-4.32c.225-.381.022-.63-.338-.63h-2.182c-.36 0-.563.113-.742.405L92.009 24.7l-2.52-2.723c1.71-.945 3.33-2.205 3.33-4.454 0-2.633-1.845-4.41-4.86-4.41-2.947 0-4.905 1.911-4.905 4.702 0 1.102.473 2.362 1.508 3.554-2.115 1.17-3.51 2.565-3.51 5.176 0 3.397 2.587 5.377 5.872 5.377 2.654 0 4.253-1.148 5.4-2.678l1.71 1.89c.247.293.45.383.833.383h2.856c.361 0 .541-.315.248-.63zm-39.39-6.615l2.61-7.424 2.587 7.424h-5.197zm10.935 6.66l-6.098-16.965c-.112-.315-.337-.45-.674-.45h-3.016c-.337 0-.54.135-.651.45L52.979 30.93c-.113.293.09.586.382.586h2.205c.338 0 .54-.158.652-.473l1.329-3.824h7.266l1.328 3.824c.112.315.315.473.652.473h2.34c.315 0 .495-.293.383-.586zm34.282.585a.473.473 0 0 0 .495-.496V16.51h4.928a.472.472 0 0 0 .495-.496v-2.001a.472.472 0 0 0-.495-.495H96.103a.472.472 0 0 0-.494.495v2.001c0 .293.202.496.494.496h4.929V31.02c0 .293.202.496.494.496h2.272z"/>
      <path fill="#2493C5" d="M8.945 40.27A22.472 22.472 0 0 0 22.742 45c5.684 0 10.867-2.11 14.823-5.578.047-.041.024-.07-.023-.041-1.775 1.185-6.834 3.773-14.8 3.773-6.922 0-11.297-1.544-13.767-2.924-.048-.023-.065.012-.03.04zm15.324 1.15c5.537 0 11.622-1.508 15.26-4.498.996-.813 1.945-1.898 2.794-3.355.49-.837.968-1.833 1.357-2.812.017-.047-.012-.07-.047-.018-3.385 4.982-13.184 8.09-23.302 8.09-7.153 0-14.847-2.288-17.86-6.657-.03-.041-.06-.024-.041.023 2.806 5.967 11.32 9.228 21.84 9.228zm-6.05-9.899c-11.515 0-16.945-5.365-17.93-9.027-.011-.053-.047-.041-.047.006 0 1.232.124 2.824.336 3.88.1.512.52 1.32 1.132 1.963 2.79 2.907 9.74 6.981 21.78 6.981 16.404 0 20.154-5.466 20.92-7.264.55-1.285.832-3.608.832-5.56 0-.472-.012-.85-.03-1.22 0-.06-.035-.065-.046-.006-.82 4.398-14.835 10.247-26.946 10.247zM2.413 12.848c-.66 1.309-1.392 3.52-1.61 4.664-.094.49-.053.725.118 1.09 1.38 2.931 8.36 7.619 24.647 7.619 9.935 0 17.653-2.442 18.903-6.9.23-.819.242-1.685-.053-2.853-.33-1.303-.95-2.824-1.474-3.891-.018-.036-.048-.03-.041.011.194 5.844-16.097 9.611-24.317 9.611-8.903 0-16.332-3.549-16.332-8.03 0-.43.088-.861.2-1.31.012-.04-.023-.046-.041-.011zM37.6 5.672a.91.91 0 0 1 .141.519c0 2.5-7.647 6.922-19.823 6.922-8.944 0-10.619-3.32-10.619-5.43 0-.755.289-1.527.926-2.311.035-.048.006-.065-.036-.03a22.566 22.566 0 0 0-3.166 3.29C4.576 9.198 4.3 9.7 4.3 10c0 4.375 10.967 7.547 21.22 7.547 10.926 0 15.802-3.567 15.802-6.704 0-1.12-.436-1.775-1.55-3.042a26.464 26.464 0 0 0-2.135-2.158c-.035-.03-.059-.006-.035.03zm-3.35-2.5A22.24 22.24 0 0 0 22.743 0c-4.251 0-8.284 1.19-11.669 3.267-1.014.625-1.585 1.126-1.585 1.768 0 1.9 4.434 3.94 12.299 3.94 7.783 0 13.82-2.236 13.82-4.388 0-.513-.447-.872-1.355-1.415z"/>
    </g>
    <rect width="110" height="72"/>
  </g>
</svg>
