<svg xmlns="http://www.w3.org/2000/svg" width="50" height="72" viewBox="0 0 50 72">
  <title>
    logo-color-ge
  </title>
  <g fill="none" fill-rule="evenodd">
    <rect width="50" height="72"/>
    <path fill="#2B6BB1" d="M20.683 37.836c-3.112 1.512-7.06 4.215-7.06 7.185 0 1.103.551 1.796 1.583 1.796 3.04 0 4.908-4.837 5.477-8.98zm.818-12.947c0-.337-.196-.48-.48-.48-1.459 0-3.521 3.806-3.521 6.082 2.276-1.244 4-4.072 4-5.601zm12.253.285c0-.338-.07-.765-.498-.765-1.03 0-2.685 2.223-2.685 5.051 2.063-1.796 3.183-3.326 3.183-4.286zm5.104 17.429c0 3.112-2.685 6.366-6.633 6.366-4.766 0-7.185-4.019-7.185-7.611 0-5.051 3.45-7.185 4.909-7.95-.285-.213-.498-.48-.694-.836-1.672 1.174-3.183 2.223-6.367 4.02-.142 2.205-.338 4.623-.907 6.295-1.174 3.521-3.592 6.082-6.776 6.082-2.685 0-4.001-1.938-4.001-4.019 0-1.512.89-3.45 2.49-4.909 2.01-1.796 4.215-2.898 7.256-4.499.07-.409.142-.818.213-1.316-.764.694-1.867.978-2.774.978-1.44 0-2.632-1.245-2.899-2.56-1.938-.143-3.397-1.53-3.468-3.735 0-1.583.622-2.97 1.672-2.97.409 0 .551.338.551.622 0 .267-.356 1.174-.356 2.063 0 .907.427 2.081 1.53 2.081 0-3.592 2.632-8.234 5.744-8.234 2.063 0 2.348 1.53 2.348 2.223 0 3.254-3.255 6.847-5.887 7.736.071.285.356 1.05 1.192 1.05 1.031 0 2.276-.979 2.899-1.744.266-1.44 1.316-3.52 2.703-3.52.551 0 .818.408.818.906 0 1.031-1.103 2.348-1.939 3.237a12.415 12.415 0 0 0-.195 2.08c2.418-1.458 3.663-2.205 5.46-3.52-.143-.481-.143-1.05-.143-1.601 0-3.237 2.152-6.847 4.98-6.847 1.6 0 2.418 1.12 2.418 2.365 0 2.348-2.01 4.41-4.837 6.562.214.552.551 1.032 1.103 1.317.071-.143.978-.285 1.725-.285.836 0 2.01.213 2.01 1.05 0 .96-1.317 1.173-2.348 1.173-.551.071-1.458-.142-1.458-.142-1.512.409-4.429 2.152-4.429 6.562 0 2.988 1.868 5.744 4.784 5.744 2.205 0 4.002-1.654 4.073-4.214 0-1.655-.694-3.397-2.348-3.397-.836 0-1.583.622-1.583 1.53-.07 1.386.96 1.529.96 2.418 0 .622-.48.907-.96.907-1.387 0-2.436-1.387-2.436-3.112 0-2.081 1.814-3.806 4.162-3.806 3.04 0 4.623 2.632 4.623 5.46zm8.377-6.634c0-7.896-4.02-16.06-12.663-18.673-1.796-.552-3.307-.907-5.05-.907-4.002 0-4.144 2.276-6.011 2.276-1.032 0-1.726-.747-1.726-1.654 0-1.583 1.868-2.828 4.838-2.828 2.774 0 4.908.694 5.317.89l.072-.196c-.747-.285-3.38-1.192-7.043-1.192-7.967 0-16.06 4.09-18.674 12.663-.55 1.796-.906 3.325-.906 5.05 0 4.02 2.276 4.215 2.276 6.083 0 .978-.747 1.671-1.654 1.671-1.583 0-2.828-1.814-2.828-4.855 0-2.756.694-4.908.818-5.317l-.195-.071c-.214.836-1.12 3.396-1.12 7.06 0 8.02 4.09 16.112 12.662 18.745 1.796.55 3.326.889 5.05.889 4.02 0 4.144-2.348 6.012-2.348a1.72 1.72 0 0 1 1.742 1.725c0 1.53-1.814 2.775-4.855 2.775-2.756 0-4.98-.694-5.317-.836l-.071.213c.765.338 3.396 1.103 7.06 1.103 7.95 0 16.112-4.02 18.673-12.663.552-1.725.89-3.307.89-4.98 0-4.072-2.277-4.214-2.277-6.081 0-1.032.694-1.725 1.654-1.725 1.6 0 2.846 1.867 2.846 4.908 0 2.703-.694 4.837-.836 5.317l.213.072c.267-.818 1.103-3.38 1.103-7.114zm1.512 0c0 13.142-10.635 23.777-23.778 23.777-13.143 0-23.795-10.635-23.795-23.777 0-13.143 10.652-23.795 23.795-23.795 13.143 0 23.777 10.724 23.777 23.795zm1.191 0C49.938 22.204 38.734 11 24.97 11S0 22.204 0 35.97C0 49.786 11.204 60.937 24.97 60.937s24.97-11.15 24.97-24.969z"/>
  </g>
</svg>
