<svg xmlns="http://www.w3.org/2000/svg" width="227" height="72" viewBox="0 0 227 72" xmlns:xlink="http://www.w3.org/1999/xlink">
  <title>
    logo-color-united-health-group
  </title>
  <defs>
    <polygon id="a" points="226.95 .005 0 .005 0 16.781 226.95 16.781 226.95 .005"/>
  </defs>
  <g fill="none" fill-rule="evenodd" transform="translate(0 -1)">
    <g transform="translate(0 31.935)">
      <mask id="b" fill="white">
        <use xlink:href="#a"/>
      </mask>
      <path fill="#00446E" d="M116.96 15.513c.04.147.08.247.08.391 0 .31-.204.517-.516.517h-1.35c-.632 0-.906-.29-1.027-.66l-.847-2.678h-5.23l-.811 2.677c-.145.434-.506.661-1 .661h-.927a.504.504 0 0 1-.497-.494c0-.123.042-.208.085-.332l4.114-12.818c.148-.432.44-.659.969-.659h1.823c.516 0 .864.227 1.009.659l4.125 12.736zm-4.237-4.188l-2.015-7.089-2.137 7.09h4.152zm58.202 4.632c.456-.201.489-.263.489-.815V9.345c0-.298-.13-.449-.505-.449h-1.786c-.33 0-.52.1-.52.422v5.301c-.2.056-.852.258-2.095.258-3.253 0-4.512-2.623-4.512-6.49 0-2.802.654-6.487 4.512-6.487 2.031 0 3.234 1.245 3.447 1.462.136.139.353.429.603.429.307 0 .333-.276.367-.475.066-.36.179-1.027.26-1.434.014-.084.077-.425.077-.536 0-.231-.034-.333-.531-.543-.328-.138-1.714-.803-4.223-.803-5.44 0-7.672 3.132-7.672 8.387 0 6.695 3.626 8.39 7.672 8.39 2.48 0 3.663-.487 4.417-.82zm-144.478.466c.37 0 .68-.322.68-.692V2.807c0-.37-.31-.687-.68-.687h-.955a.694.694 0 0 0-.683.687V14.06S20.797 5.178 19.7 2.788c-.208-.457-.585-.668-1.197-.668h-2.072a.693.693 0 0 0-.682.687v12.924c0 .37.309.692.682.692h.951a.699.699 0 0 0 .682-.692V4.415s4.076 9.108 5.13 11.336c.166.37.475.672 1.131.672h2.12zm75.54 0c.372 0 .679-.238.679-.61v-.643c0-.371-.307-.699-.679-.699l-5.97-.006V9.98h5.1c.373 0 .682-.31.682-.677v-.57c0-.37-.309-.7-.682-.7h-5.1V4.07h5.678c.371 0 .682-.306.682-.677v-.569c0-.369-.311-.703-.682-.703h-7.803c-.372 0-.683.334-.683.703v12.99c0 .372.31.61.683.61h8.095zm-43.243 0c.372 0 .68-.238.68-.61v-.643c0-.371-.308-.699-.68-.699l-5.97-.006V9.98h5.101c.372 0 .682-.31.682-.677v-.57c0-.37-.31-.7-.682-.7h-5.101V4.07h5.677a.685.685 0 0 0 .684-.677v-.569c0-.369-.31-.703-.684-.703h-7.804c-.372 0-.682.334-.682.703v12.99c0 .372.31.61.682.61h8.097zM138.07 4.137c.371 0 .679-.306.679-.677v-.637c0-.37-.308-.704-.679-.704h-9.806c-.375 0-.684.334-.684.704v.637c0 .37.309.677.684.677h3.51V15.71c0 .39.31.713.701.713h1.405a.706.706 0 0 0 .702-.713V4.137h3.488zm-91.232 0c.371 0 .68-.306.68-.677v-.637c0-.37-.309-.704-.68-.704h-9.361c-.372 0-.682.334-.682.704v.637c0 .37.31.677.682.677h3.287V15.71c0 .39.313.713.703.713h1.404a.707.707 0 0 0 .703-.713V4.137h3.264zM33.556 16.423a.707.707 0 0 0 .704-.713V2.83c0-.37-.31-.71-.683-.71h-1.443c-.374 0-.684.34-.684.71V15.71c0 .39.31.713.704.713h1.402zm93.718 0a.689.689 0 0 0 .682-.683v-.635c0-.368-.31-.701-.682-.701h-4.82V2.819c0-.371-.31-.699-.683-.699h-1.448c-.372 0-.683.328-.683.699V15.72c0 .392.31.703.703.703h6.931zm-38.607 0c.44 0 .79-.346.79-.785v-14.5c0-.415-.35-.786-.767-.786h-1.273c-.42 0-.769.37-.769.787v5.906h-6.586V1.139c0-.416-.348-.787-.767-.787H78.02c-.42 0-.766.37-.766.787v14.5c0 .438.346.784.788.784h1.226a.782.782 0 0 0 .794-.785V9.104h6.586v6.534c0 .44.349.785.791.785h1.228zm-20.882-.002c3.2 0 6.116-1.576 6.116-7.07 0-5.41-2.708-7.232-6.116-7.232h-5.18c-.373 0-.686.342-.686.711v12.9a.7.7 0 0 0 .685.691h5.181zm-.66-12.644c3.266 0 4.027 2.613 4.027 5.574 0 2.964-.79 5.412-4.028 5.412h-2.456V3.777h2.456zM5.975 16.669c3.874 0 5.948-2.012 5.948-5.411V1.044c0-.416-.354-.8-.78-.8h-1.095c-.427 0-.782.384-.782.8V11.55c0 2.194-.908 3.373-3.229 3.373-1.752 0-3.229-.716-3.229-3.373V1.044c0-.416-.356-.8-.782-.8H.783c-.427 0-.783.384-.783.8v10.214c0 2.939 1.573 5.411 5.976 5.411zm145.717-.248a.7.7 0 0 0 .705-.702V2.82c0-.372-.312-.7-.686-.7h-1.407c-.372 0-.684.328-.684.7v5.185h-5.539V2.819c0-.372-.309-.7-.683-.7h-1.406c-.372 0-.683.328-.683.7v12.9c0 .391.311.702.704.702h1.365a.697.697 0 0 0 .703-.702v-5.7h5.54v5.7a.7.7 0 0 0 .704.702h1.367zm69.332-7.152c-.528 0-.795.325-.795.662 0 .334.269.656.86.755.34.057.89.11 1.447.11 2.933 0 4.413-1.69 4.413-4.204 0-2.782-1.624-4.473-4.406-4.473h-5.172c-.372 0-.68.328-.68.7V15.74c0 .37.308.681.68.681h1.428c.37 0 .642-.311.642-.68V3.768h2.224c1.558 0 2.658.697 2.658 2.823 0 1.94-1.134 2.677-2.59 2.677h-.709zm-12.945 7.454c3.511 0 5.42-1.753 5.42-4.78V2.819c0-.371-.312-.7-.686-.7h-1.18c-.369 0-.679.329-.679.7v9.287c0 1.779-.64 3.012-2.742 3.012-1.598 0-2.74-.643-2.74-3.012V2.819c0-.371-.312-.7-.686-.7h-1.447c-.373 0-.682.329-.682.7v9.124c0 2.616 1.573 4.78 5.422 4.78zm-14.426 0c2.87 0 6.298-1.07 6.298-7.45 0-6.465-3.507-7.454-6.298-7.454-2.796 0-6.3.99-6.3 7.453 0 6.503 3.53 7.45 6.3 7.45zm0-13.298c2.928 0 3.484 2.665 3.484 5.847 0 3.321-.682 5.846-3.527 5.846-2.9 0-3.442-2.635-3.442-5.846 0-3.182.511-5.847 3.485-5.847zm-13.737 5.098c1.787 0 2.502-.806 2.502-2.345 0-1.629-.828-2.39-2.46-2.39h-2.383V15.74c0 .37-.306.681-.68.681h-1.47a.689.689 0 0 1-.682-.68V2.818c0-.372.311-.7.681-.7h4.82c2.959 0 4.8 1.339 4.8 4.059 0 2.142-1.363 3.173-2.937 3.586l3.103 5.79c.063.125.123.25.123.392 0 .248-.161.475-.393.475h-1.798c-.207 0-.436-.166-.537-.393l-3.317-6.452c-.084-.16-.231-.42-.231-.664 0-.218.106-.389.486-.389h.373z" mask="url(#b)"/>
    </g>
    <rect width="227" height="72" y=".935"/>
  </g>
</svg>
