<svg xmlns="http://www.w3.org/2000/svg" width="126" height="72" viewBox="0 0 126 72">
  <title>
    logo-color-accenture
  </title>
  <g fill="none" fill-rule="evenodd">
    <g transform="translate(0 11)">
      <path fill="#000000" d="M9.195 29.105c0 2.152-.84 5.004-3.415 5.057-1.262-.053-2.049-.7-2.049-2.044 0-2.528 3.625-3.013 5.464-3.013zm3.626 7.425V24.53c.052-3.872-2.47-5.217-5.938-5.217-3.415 0-6.252 1.506-6.252 5.326h3.73c0-1.668.893-2.583 2.522-2.583 1.892 0 2.312 1.399 2.312 3.067v1.668c-3.73.107-9.143.645-9.195 5.702.052 2.851 2.26 4.412 4.834 4.412 1.839 0 3.468-.645 4.257-2.314h.104v1.938h3.626zM24.17 25.447c0-1.72-.473-3.39-2.469-3.39-2.417 0-3.1 2.583-3.153 4.628.053 4.195 2.417 7.424 6.778 7.477.946-.053 1.84-.162 2.732-.43v2.367c-1.523.483-3.152.807-4.781.807-5.832 0-8.775-3.712-8.775-9.522 0-4.896 2.575-8.07 7.514-8.07 3.994 0 6.252 1.99 6.252 6.133h-4.097zM38.882 25.447c0-1.72-.472-3.39-2.47-3.39-2.416 0-3.152 2.583-3.152 4.628 0 4.195 2.417 7.424 6.726 7.477.946-.053 1.892-.162 2.785-.43v2.367c-1.524.483-3.153.807-4.781.807-5.833 0-8.775-3.712-8.775-9.522 0-4.896 2.574-8.07 7.513-8.07 3.994 0 6.2 1.99 6.2 6.133h-4.046zM53.858 24.748h-5.99c.21-1.721 1.47-2.905 3.1-2.905 1.785 0 2.89 1.075 2.89 2.905zm3.625 2.367v-.968c0-4.144-2.049-6.833-6.253-6.833-4.887 0-6.988 3.12-7.04 7.908.052 5.54 2.468 9.684 8.301 9.684 1.576 0 3.1-.215 4.572-.7v-2.689c-.946.323-2.102.592-3.153.645-3.678-.053-6.148-3.496-6.148-7.047h9.72zM68.833 36.53v-9.631c0-.807.052-2.958-.578-3.603-.263-.27-.737-.324-1.104-.324-2.785 0-3.888 3.981-3.888 6.295v7.263h-3.836V19.69h3.836v3.175h.052c.894-2.152 2.575-3.55 4.887-3.55 3.153 0 4.466 2.635 4.466 5.54V36.53h-3.835zM80.603 22.434v7.963c0 1.935.21 3.712 2.574 3.765a9.564 9.564 0 0 0 1.786-.322v2.797c-1.05.162-2.101.269-3.152.269-3.31 0-4.992-1.13-5.044-4.627v-9.845H73.56V19.69h3.206v-3.98l3.836-1.56v5.54h4.885v2.744h-4.885zM96.523 36.53v-3.175h-.053c-.84 2.099-2.522 3.55-4.886 3.55-3.1 0-4.414-2.688-4.414-5.54V19.69h3.836v9.63c0 .808-.052 2.96.578 3.605.263.269.735.269 1.104.323 2.732-.054 3.835-4.036 3.835-6.24V19.69h3.836v16.84h-3.836zM106.611 29.16v7.37h-3.836V19.69h3.836v3.12h.053c1.314-2.313 2.575-3.496 5.307-3.496v4.089c-3.889 0-5.36 1.775-5.36 5.757zM122.374 24.748h-5.99c.21-1.721 1.472-2.905 3.102-2.905 1.784 0 2.94 1.075 2.888 2.905zM126 27.115v-.968c0-4.144-2.049-6.833-6.2-6.833-4.887 0-7.041 3.12-7.041 7.908 0 5.54 2.47 9.684 8.25 9.684 1.576 0 3.1-.215 4.57-.7v-2.689c-.945.323-2.048.592-3.1.645-3.73-.053-6.147-3.496-6.2-7.047H126z"/>
      <path fill="#AD1E33" d="M73.561 0v2.744s7.672 3.013 8.775 3.497c-1.103.43-8.775 3.443-8.775 3.443v2.744l11.927-4.95V4.95L73.561 0z"/>
    </g>
    <rect width="126" height="72"/>
  </g>
</svg>
