<svg xmlns="http://www.w3.org/2000/svg" width="50" height="72" viewBox="0 0 50 72">
  <title>
    logo-white-ge
  </title>
  <g fill="none" fill-rule="evenodd">
    <path fill="#FFFFFF" d="M20.709 37.87c-3.116 1.513-7.07 4.22-7.07 7.193 0 1.104.553 1.799 1.585 1.799 3.045 0 4.915-4.843 5.485-8.992zm.819-12.963c0-.339-.196-.481-.481-.481-1.46 0-3.526 3.81-3.526 6.09 2.28-1.247 4.007-4.078 4.007-5.61zm12.268.284c0-.338-.07-.765-.498-.765-1.033 0-2.69 2.226-2.69 5.057 2.067-1.799 3.188-3.33 3.188-4.291zm5.11 17.45c0 3.117-2.688 6.375-6.641 6.375-4.772 0-7.194-4.024-7.194-7.62 0-5.058 3.455-7.194 4.915-7.96-.285-.214-.499-.48-.695-.837-1.673 1.175-3.187 2.226-6.374 4.024-.143 2.208-.339 4.63-.909 6.304-1.175 3.525-3.596 6.09-6.784 6.09-2.688 0-4.006-1.941-4.006-4.025 0-1.513.89-3.454 2.493-4.914 2.012-1.799 4.22-2.903 7.265-4.505.071-.41.142-.82.213-1.318-.765.694-1.87.98-2.777.98-1.443 0-2.636-1.247-2.903-2.565-1.94-.142-3.4-1.531-3.472-3.74 0-1.584.623-2.973 1.674-2.973.41 0 .552.339.552.624 0 .267-.356 1.175-.356 2.065 0 .908.427 2.083 1.531 2.083 0-3.596 2.635-8.244 5.751-8.244 2.066 0 2.35 1.531 2.35 2.226 0 3.258-3.258 6.855-5.893 7.746.071.284.356 1.05 1.193 1.05 1.033 0 2.28-.98 2.903-1.745.266-1.442 1.317-3.525 2.706-3.525.552 0 .819.409.819.908 0 1.032-1.104 2.35-1.94 3.24a12.43 12.43 0 0 0-.197 2.084c2.422-1.46 3.668-2.208 5.467-3.526-.143-.48-.143-1.05-.143-1.602 0-3.241 2.155-6.856 4.986-6.856 1.603 0 2.422 1.122 2.422 2.368 0 2.35-2.012 4.416-4.843 6.57.213.553.551 1.034 1.103 1.318.072-.142.98-.284 1.728-.284.837 0 2.012.213 2.012 1.05 0 .962-1.318 1.175-2.35 1.175-.553.072-1.46-.142-1.46-.142-1.514.41-4.435 2.154-4.435 6.57 0 2.992 1.87 5.752 4.79 5.752 2.208 0 4.007-1.656 4.078-4.22 0-1.656-.694-3.401-2.35-3.401-.837 0-1.585.623-1.585 1.531-.071 1.389.961 1.531.961 2.422 0 .623-.48.908-.961.908-1.389 0-2.44-1.389-2.44-3.116 0-2.084 1.817-3.81 4.167-3.81 3.045 0 4.63 2.635 4.63 5.466zm8.387-6.64c0-7.907-4.024-16.08-12.678-18.698-1.798-.552-3.312-.908-5.057-.908-4.006 0-4.148 2.28-6.018 2.28-1.033 0-1.727-.748-1.727-1.656 0-1.585 1.87-2.832 4.843-2.832 2.778 0 4.914.695 5.324.89l.071-.195c-.748-.285-3.383-1.193-7.051-1.193-7.977 0-16.08 4.095-18.697 12.678-.551 1.798-.908 3.33-.908 5.057 0 4.024 2.28 4.22 2.28 6.09 0 .979-.748 1.673-1.657 1.673-1.584 0-2.83-1.816-2.83-4.86 0-2.76.694-4.915.818-5.325l-.195-.071c-.214.837-1.122 3.4-1.122 7.07 0 8.03 4.095 16.131 12.678 18.767 1.798.552 3.33.89 5.057.89 4.024 0 4.149-2.35 6.018-2.35.98 0 1.745.765 1.745 1.727 0 1.531-1.816 2.778-4.86 2.778-2.76 0-4.987-.695-5.325-.837l-.071.213c.766.339 3.4 1.105 7.069 1.105 7.96 0 16.132-4.025 18.697-12.679.552-1.727.89-3.312.89-4.985 0-4.078-2.28-4.22-2.28-6.09 0-1.033.695-1.727 1.657-1.727 1.602 0 2.849 1.87 2.849 4.914 0 2.707-.695 4.844-.837 5.324l.213.071c.268-.819 1.104-3.383 1.104-7.122zm1.514 0c0 13.158-10.648 23.806-23.807 23.806C11.841 59.807 1.175 49.159 1.175 36c0-13.159 10.666-23.825 23.825-23.825 13.159 0 23.807 10.737 23.807 23.825zM50 36C50 22.217 38.782 11 25 11S0 22.218 0 36c0 13.835 11.218 25 25 25s25-11.165 25-25z"/>
    <rect width="50" height="72"/>
  </g>
</svg>
