<?xml version="1.0" encoding="UTF-8"?>
<svg width="60px" height="36px" viewBox="0 0 60 36" version="1.1" xmlns="http://www.w3.org/2000/svg" xmlns:xlink="http://www.w3.org/1999/xlink">
    <!-- Generator: Sketch 41.2 (35397) - http://www.bohemiancoding.com/sketch -->
    <title>icon-training-in-person</title>
    <desc>Created with Sketch.</desc>
    <defs>
        <path d="M0,18.1225402 C0.656381021,17.3528943 1.52468775,14.7648804 2.5136744,14.4318337 L6.21954015,13.5508461 L13.0360987,13.5508461 L16.7362443,14.4318337 C17.31904,14.6277435 17.8606279,14.9104134 18.3404042,15.2658499 C18.6847835,15.517734 18.9967852,17.8146818 19.2705226,18.1393324 L0,18.1225402 Z" id="path-1"></path>
        <mask id="mask-2" maskContentUnits="userSpaceOnUse" maskUnits="objectBoundingBox" x="0" y="0" width="19.2705226" height="4.58848634" fill="white">
            <use xlink:href="#path-1"></use>
        </mask>
        <path d="M7.64175896,11.4754794 L7.64175896,10.4305855 L11.961014,10.4305855 L11.961014,11.4578762 C11.961014,11.878398 11.9243009,12.9376976 12.7778503,13.3576527 C12.8504572,13.393376 13.9545164,13.8657593 13.9545164,13.8657593 C13.9545164,13.8657593 12.3656535,15.3808831 9.6408706,15.3327281 C6.9160877,15.2845732 5.5375065,13.8657592 5.5375065,13.8657592 C5.5375065,13.8657592 6.52435331,13.4087075 6.64283119,13.3576527 C7.50881808,12.9844792 7.60722396,12.2821044 7.64175896,11.4754794 Z" id="path-3"></path>
        <mask id="mask-4" maskContentUnits="userSpaceOnUse" maskUnits="objectBoundingBox" x="0" y="0" width="8.41700987" height="4.90326668" fill="white">
            <use xlink:href="#path-3"></use>
        </mask>
        <path d="M1.45718074,10.7384046 L1.45718074,5.30865 C1.45718074,2.7566375 3.69987088,0.668627275 6.44093659,0.668627275 C9.18200231,0.668627275 11.4246924,2.7566375 11.4246924,5.30865 L11.4246924,10.7384046 C11.4246924,13.2904171 9.18200231,15.3784273 6.44093659,15.3784273 C3.69987088,15.3784273 1.45718074,13.2904171 1.45718074,10.7384046 Z" id="path-5"></path>
        <mask id="mask-6" maskContentUnits="userSpaceOnUse" maskUnits="objectBoundingBox" x="0" y="0" width="9.96751169" height="14.7098" fill="white">
            <use xlink:href="#path-5"></use>
        </mask>
        <path d="M12.0891932,5.91185379 C12.0891932,2.6902803 9.51275955,-0.0432182878 6.36396194,0.000517689683 C3.29248008,0.0430904762 0.792679965,2.62653744 0.792679965,5.77831948 L0.792679965,7.57777578 L2.96820873,7.57777578 C4.28621486,7.57777578 5.53259023,6.96477418 6.35600297,5.91208643 L7.76993815,4.01176365 L8.18687345,5.01980578 C8.8524711,6.69107845 10.3252571,7.57777578 12.0891932,7.68921366 L12.0891932,5.91185379 Z" id="path-7"></path>
        <mask id="mask-8" maskContentUnits="userSpaceOnUse" maskUnits="objectBoundingBox" x="0" y="0" width="11.2965133" height="7.68921366" fill="white">
            <use xlink:href="#path-7"></use>
        </mask>
        <path d="M0,7.69195469 C0.399290589,6.48568455 1.12539716,4.33429492 2.11438381,4.00124818 L5.82024956,3.12026062 L12.6368081,3.12026062 L16.3369537,4.00124818 C16.9197494,4.19715802 17.4613374,4.47982795 17.9411136,4.83526438 C18.2854929,5.08714847 18.5974946,7.38409635 18.871232,7.70874696 L0,7.69195469 Z" id="path-9"></path>
        <mask id="mask-10" maskContentUnits="userSpaceOnUse" maskUnits="objectBoundingBox" x="0" y="0" width="18.871232" height="4.58848634" fill="white">
            <use xlink:href="#path-9"></use>
        </mask>
        <path d="M7.24246838,1.04489389 L7.24246838,0 L11.5617234,0 L11.5617234,1.02729074 C11.5617234,1.44781251 11.5250103,2.50711208 12.3785597,2.92706716 C12.4511666,2.9627905 13.5552258,3.4351738 13.5552258,3.4351738 C13.5552258,3.4351738 11.9663629,4.95029761 9.24158001,4.90214265 C6.51679711,4.8539877 5.13821591,3.43517376 5.13821591,3.43517376 C5.13821591,3.43517376 6.12506272,2.97812197 6.2435406,2.92706716 C7.10952749,2.55389375 7.20793337,1.85151887 7.24246838,1.04489389 Z" id="path-11"></path>
        <mask id="mask-12" maskContentUnits="userSpaceOnUse" maskUnits="objectBoundingBox" x="0" y="0" width="8.41700987" height="4.90326668" fill="white">
            <use xlink:href="#path-11"></use>
        </mask>
        <path d="M1.45718074,10.7384046 L1.45718074,5.30865 C1.45718074,2.7566375 3.69987088,0.668627275 6.44093659,0.668627275 C9.18200231,0.668627275 11.4246924,2.7566375 11.4246924,5.30865 L11.4246924,10.7384046 C11.4246924,13.2904171 9.18200231,15.3784273 6.44093659,15.3784273 C3.69987088,15.3784273 1.45718074,13.2904171 1.45718074,10.7384046 Z" id="path-13"></path>
        <mask id="mask-14" maskContentUnits="userSpaceOnUse" maskUnits="objectBoundingBox" x="0" y="0" width="9.96751169" height="14.7098" fill="white">
            <use xlink:href="#path-13"></use>
        </mask>
        <path d="M12.0891932,5.91185379 C12.0891932,2.6902803 9.51275955,-0.0432182878 6.36396194,0.000517689683 C3.29248008,0.0430904762 0.792679965,2.62653744 0.792679965,5.77831948 L0.792679965,7.57777578 L2.96820873,7.57777578 C4.28621486,7.57777578 5.53259023,6.96477418 6.35600297,5.91208643 L7.76993815,4.01176365 L8.18687345,5.01980578 C8.8524711,6.69107845 10.3252571,7.57777578 12.0891932,7.68921366 L12.0891932,5.91185379 Z" id="path-15"></path>
        <mask id="mask-16" maskContentUnits="userSpaceOnUse" maskUnits="objectBoundingBox" x="0" y="0" width="11.2965133" height="7.68921366" fill="white">
            <use xlink:href="#path-15"></use>
        </mask>
        <path d="M0,12.9303168 C0.399290589,10.498235 0.260128971,8.8534271 3.5936153,7.31226793 L10.6231922,5.12685669 L21.8284939,5.12685669 C21.8284939,5.12685669 28.6708995,6.26182343 30.3460848,7.31226793 C32.5400128,8.68799616 33.5404104,11.2739301 33.5404095,12.9303168 L0,12.9303168 Z" id="path-17"></path>
        <mask id="mask-18" maskContentUnits="userSpaceOnUse" maskUnits="objectBoundingBox" x="0" y="0" width="33.5404095" height="7.80346014" fill="white">
            <use xlink:href="#path-17"></use>
        </mask>
        <path d="M13.1431412,1.71685057 L13.1431412,0 L20.0612315,0 L20.0612315,1.68792709 C20.0612315,2.37888054 20.0008811,4.11940088 21.403976,4.80942322 C21.5233298,4.86811974 23.3382216,5.64428614 23.3382216,5.64428614 C23.3382216,5.64428614 20.7263922,8.13376494 16.2472971,8.0546422 C11.7682019,7.97551947 9.50204099,5.64428608 9.50204099,5.64428608 C9.50204099,5.64428608 11.1242549,4.89331067 11.3190131,4.80942322 C12.7425532,4.19626719 13.1691489,3.21323484 13.1431412,1.71685057 Z" id="path-19"></path>
        <mask id="mask-20" maskContentUnits="userSpaceOnUse" maskUnits="objectBoundingBox" x="0" y="0" width="13.8361806" height="8.05648908" fill="white">
            <use xlink:href="#path-19"></use>
        </mask>
    </defs>
    <g id="/corporate-training" stroke="none" stroke-width="1" fill="none" fill-rule="evenodd">
        <g id="Corporate-Training-5" transform="translate(-941.000000, -1668.000000)">
            <g id="how" transform="translate(0.000000, 1464.000000)">
                <g id="cards">
                    <g id="workshops" transform="translate(730.000000, 168.000000)">
                        <g id="icon" transform="translate(198.000000, 12.000000)">
                            <g transform="translate(13.000000, 24.000000)">
                                <g id="3" transform="translate(35.943247, 11.029409)">
                                    <g id="Body" transform="translate(0.000000, 3.543725)" stroke="#02B3E4">
                                        <path d="M4.89233821,5.33998958 L4.89233821,8.94900848 C4.89233821,9.51813118 4.42743618,9.97957679 3.85405053,9.97957679 L3.85405053,9.97957679 C3.28066487,9.97957679 2.81576285,10.4410224 2.81576285,11.0101451 L2.81576285,11.0101451 C2.81576285,13.6378913 4.96206377,15.7680418 7.60929809,15.7680418 L11.8504822,15.7680418 C14.4979113,15.7680418 16.6440175,13.6378913 16.6440175,11.0101451 L16.6440175,11.0101451 C16.6440175,10.4410224 16.1793102,9.97957679 15.6059245,9.97957679 L15.6059245,9.97957679 C15.0323441,9.97957679 14.5676369,9.51813118 14.5676369,8.94900848 L14.5676369,5.33998958 L10.8786091,0.21498557 L4.89233821,5.33998958 L4.89233821,5.33998958 Z" id="Stroke-5" stroke-linecap="round" stroke-linejoin="round" fill="#D3F5FF"></path>
                                        <use id="Fill-34" mask="url(#mask-2)" stroke-width="2" fill="#FFFFFF" xlink:href="#path-1"></use>
                                        <use id="Fill-48" mask="url(#mask-4)" stroke-width="2" fill="#FFFFFF" xlink:href="#path-3"></use>
                                    </g>
                                    <g id="Face" transform="translate(3.194325, 0.000000)">
                                        <path d="M0.128179185,9.02646821 C0.128179185,7.91855282 1.02060373,7.02058639 2.12168152,7.02058639 C3.22275932,7.02058639 4.11518386,7.91855282 4.11518386,9.02646821 C4.11518386,10.1343836 3.22275932,11.03235 2.12168152,11.03235 C1.02060373,11.03235 0.128179185,10.1343836 0.128179185,9.02646821 L0.128179185,9.02646821 Z" id="Stroke-42" stroke="#02B3E4" stroke-linecap="round" stroke-linejoin="round" fill="#FFFFFF"></path>
                                        <path d="M8.76668932,9.02646821 C8.76668932,7.91855282 9.65911387,7.02058639 10.7601917,7.02058639 C11.8612694,7.02058639 12.753694,7.91855282 12.753694,9.02646821 C12.753694,10.1343836 11.8612694,11.03235 10.7601917,11.03235 C9.65911387,11.03235 8.76668932,10.1343836 8.76668932,9.02646821" id="Fill-44" stroke="#02B3E4" fill="#FFFFFF"></path>
                                        <use id="Fill-54" stroke="#02B3E4" mask="url(#mask-6)" stroke-width="2" fill="#FFFFFF" xlink:href="#path-5"></use>
                                        <use id="Fill-58" stroke="#02B3E4" mask="url(#mask-8)" stroke-width="2" fill="#D3F5FF" xlink:href="#path-7"></use>
                                        <path d="M3.78293347,9.02646821 C3.78293347,8.65716308 4.08040832,8.35784094 4.44743425,8.35784094 C4.81446018,8.35784094 5.11193503,8.65716308 5.11193503,9.02646821 C5.11193503,9.39577334 4.81446018,9.69509549 4.44743425,9.69509549 C4.08040832,9.69509549 3.78293347,9.39577334 3.78293347,9.02646821" id="Fill-62" fill="#02B3E4"></path>
                                        <path d="M7.76993815,9.02646821 C7.76993815,8.65716308 8.067413,8.35784094 8.43443893,8.35784094 C8.80146486,8.35784094 9.09893971,8.65716308 9.09893971,9.02646821 C9.09893971,9.39577334 8.80146486,9.69509549 8.43443893,9.69509549 C8.067413,9.69509549 7.76993815,9.39577334 7.76993815,9.02646821" id="Fill-64" fill="#02B3E4"></path>
                                        <path d="M6.44100717,12.0352909 C5.11834318,12.0352909 5.03763294,11.03235 4.77968464,11.03235 C4.61680408,11.03235 4.39680102,11.2619376 4.46037206,11.4947043 C4.70406103,12.3853495 5.49737459,13.0382319 6.44100717,13.0382319 C7.38441901,13.0382319 8.1779533,12.3853495 8.42142154,11.4947043 C8.48521331,11.2619376 8.27155848,11.03235 8.10774497,11.03235 C7.89136864,11.03235 7.7841335,12.0352909 6.44100717,12.0352909 Z" id="Fill-66" fill="#02B3E4"></path>
                                    </g>
                                </g>
                                <g id="2" transform="translate(4.000000, 11.029409)">
                                    <g id="Body" transform="translate(0.000000, 13.974310)" stroke="#02B3E4" stroke-width="2" fill="#FFFFFF">
                                        <use id="Fill-34" mask="url(#mask-10)" xlink:href="#path-9"></use>
                                        <use id="Fill-48" mask="url(#mask-12)" xlink:href="#path-11"></use>
                                    </g>
                                    <g id="Face" transform="translate(2.795034, 0.000000)">
                                        <path d="M0.128179185,9.02646821 C0.128179185,7.91855282 1.02060373,7.02058639 2.12168152,7.02058639 C3.22275932,7.02058639 4.11518386,7.91855282 4.11518386,9.02646821 C4.11518386,10.1343836 3.22275932,11.03235 2.12168152,11.03235 C1.02060373,11.03235 0.128179185,10.1343836 0.128179185,9.02646821 L0.128179185,9.02646821 Z" id="Stroke-42" stroke="#02B3E4" stroke-linecap="round" stroke-linejoin="round" fill="#FFFFFF"></path>
                                        <path d="M8.76668932,9.02646821 C8.76668932,7.91855282 9.65911387,7.02058639 10.7601917,7.02058639 C11.8612694,7.02058639 12.753694,7.91855282 12.753694,9.02646821 C12.753694,10.1343836 11.8612694,11.03235 10.7601917,11.03235 C9.65911387,11.03235 8.76668932,10.1343836 8.76668932,9.02646821" id="Fill-44" stroke="#02B3E4" fill="#FFFFFF"></path>
                                        <use id="Fill-54" stroke="#02B3E4" mask="url(#mask-14)" stroke-width="2" fill="#FFFFFF" xlink:href="#path-13"></use>
                                        <use id="Fill-58" stroke="#02B3E4" mask="url(#mask-16)" stroke-width="2" fill="#D3F5FF" xlink:href="#path-15"></use>
                                        <path d="M3.78293347,9.02646821 C3.78293347,8.65716308 4.08040832,8.35784094 4.44743425,8.35784094 C4.81446018,8.35784094 5.11193503,8.65716308 5.11193503,9.02646821 C5.11193503,9.39577334 4.81446018,9.69509549 4.44743425,9.69509549 C4.08040832,9.69509549 3.78293347,9.39577334 3.78293347,9.02646821" id="Fill-62" fill="#02B3E4"></path>
                                        <path d="M7.76993815,9.02646821 C7.76993815,8.65716308 8.067413,8.35784094 8.43443893,8.35784094 C8.80146486,8.35784094 9.09893971,8.65716308 9.09893971,9.02646821 C9.09893971,9.39577334 8.80146486,9.69509549 8.43443893,9.69509549 C8.067413,9.69509549 7.76993815,9.39577334 7.76993815,9.02646821" id="Fill-64" fill="#02B3E4"></path>
                                        <path d="M6.44100717,12.0352909 C5.11834318,12.0352909 5.03763294,11.03235 4.77968464,11.03235 C4.61680408,11.03235 4.39680102,11.2619376 4.46037206,11.4947043 C4.70406103,12.3853495 5.49737459,13.0382319 6.44100717,13.0382319 C7.38441901,13.0382319 8.1779533,12.3853495 8.42142154,11.4947043 C8.48521331,11.2619376 8.27155848,11.03235 8.10774497,11.03235 C7.89136864,11.03235 7.7841335,12.0352909 6.44100717,12.0352909 Z" id="Fill-66" fill="#02B3E4"></path>
                                    </g>
                                </g>
                                <g id="1" transform="translate(13.183684, 1.000000)">
                                    <path d="M8.54535249,27.6821127 C5.69478932,24.834281 3.87096928,20.4714902 3.87096928,15.5818626 C3.87096928,7.00097904 9.4886245,0.0438208005 16.4157632,0.0438208005 C23.3433844,0.0438208005 28.9605571,7.00097904 28.9605571,15.5818626 C28.9605571,20.4734324 27.1352896,24.8371944 24.2827965,27.6850261" id="Stroke-13" stroke="#02B3E4" stroke-linecap="round" stroke-linejoin="round" fill="#D3F5FF"></path>
                                    <g id="Body" transform="translate(0.000000, 21.606039)" stroke="#02B3E4" stroke-width="2" fill="#FFFFFF">
                                        <use id="Fill-34" mask="url(#mask-18)" xlink:href="#path-17"></use>
                                        <use id="Fill-48" mask="url(#mask-20)" xlink:href="#path-19"></use>
                                    </g>
                                    <g id="Face" transform="translate(6.924683, 3.955004)">
                                        <path d="M0.0229779197,8.6729587 C0.0229779197,8.71846514 0.0166959812,8.76283392 0.0166959812,8.80947802 C0.0166959812,13.8356644 4.54552995,18.7896558 9.59163986,18.7896558 C14.6377498,18.7896558 19.1665837,13.8356644 19.1665837,8.80947802 C19.1665837,8.70708853 19.1540199,8.60811202 19.1505933,8.50742902 C15.8958754,7.66535421 12.9133821,5.08709489 12.1340521,1.82148542 C11.9947344,1.23770517 11.91184,0.631959058 11.8914004,0.0102389491 C11.6435494,4.37544424 6.35859848,7.96305823 0.0229779197,8.6729587 Z" id="Stroke-11" stroke="#02B3E4" stroke-linecap="round" stroke-linejoin="round" fill="#FFFFFF"></path>
                                        <path d="M4.79148707,9.84025719 C4.79148707,9.28565494 5.23835979,8.83614931 5.78971354,8.83614931 C6.3410673,8.83614931 6.78794001,9.28565494 6.78794001,9.84025719 C6.78794001,10.3948594 6.3410673,10.8443651 5.78971354,10.8443651 C5.23835979,10.8443651 4.79148707,10.3948594 4.79148707,9.84025719" id="Fill-62" fill="#02B3E4"></path>
                                        <path d="M11.9787177,9.84025719 C11.9787177,9.28565494 12.4255904,8.83614931 12.9769441,8.83614931 C13.5282979,8.83614931 13.9751706,9.28565494 13.9751706,9.84025719 C13.9751706,10.3948594 13.5282979,10.8443651 12.9769441,10.8443651 C12.4255904,10.8443651 11.9787177,10.3948594 11.9787177,9.84025719" id="Fill-64" fill="#02B3E4"></path>
                                        <path d="M7.14075099,13.2718745 C6.80111654,13.2718745 6.54216519,13.6034219 6.63401,13.9395603 C6.98608178,15.225741 8.13222849,16.1685684 9.4955499,16.1685684 C10.8585524,16.1685684 12.005018,15.225741 12.3567709,13.9395603 C12.4489346,13.6034219 12.1899833,13.2718745 11.8503488,13.2718745 L7.14075099,13.2718745 Z" id="Fill-66" fill="#02B3E4"></path>
                                    </g>
                                </g>
                            </g>
                        </g>
                    </g>
                </g>
            </g>
        </g>
    </g>
</svg>